<?xml version="1.0" encoding="UTF-8"?><svg id="_Layer_" xmlns="http://www.w3.org/2000/svg" viewBox="0 0 2760 1840"><defs><style>.cls-1{fill:#56335b;}.cls-2{fill:#c5cc7d;}.cls-3{fill:#fff;}.cls-4{fill:#74a1bd;}.cls-5{fill:#6f4975;}.cls-6{fill:#9bbcb6;}.cls-7{opacity:.5;}.cls-8{fill:#b2c9c6;}.cls-9{opacity:.6;}.cls-10{fill:#020202;}.cls-11{fill:#edf9f7;}.cls-12{fill:#deebe9;}.cls-13{fill:#5c3b63;}.cls-14{fill:#db6b49;}.cls-15{fill:#e6eda6;}.cls-16{fill:#bed5dc;}.cls-17{opacity:.3;}.cls-18{fill:#e08b65;}.cls-19{fill:#436e8e;}.cls-20{fill:#42428e;}.cls-21{fill:#dd8964;}.cls-22{fill:#ced891;}.cls-23{fill:#e28569;}.cls-24{fill:#2f1a31;}.cls-25{fill:#cfd3a3;}.cls-26{fill:#f7b686;}.cls-27{fill:#c4634d;}.cls-28{fill:#060633;}.cls-29{fill:#96a7e2;}.cls-30{fill:#c4c695;}</style></defs><path class="cls-12" d="M2184.36,1734.26c-174.2,26.37-353.66,15.39-720.36-12.21-205.91-15.5-619.92,10.18-826.57,12.21-150.66,1.48-272.8-134.56-272.8-300.54V398.57c0-165.99,122.4-310.31,272.8-300.54,139.68,9.07,345.12,44.96,559.28,22.98,254.71-26.14,738.18-48.35,987.65-22.98,150.03,15.26,272.8,134.56,272.8,300.54V1433.71c0,165.99-123.54,277.95-272.8,300.54Z"/><g><path class="cls-8" d="M674.89,877.09c-10.75,10.98-17.44,10.82-21.74,6.61-4.3-4.22-4.59-10.9,6.16-21.87,19.59-19.99,36.84-22.02,36.84-22.02,0,0-1.39,17-21.27,37.29Z"/><path class="cls-8" d="M700.3,973.36c-6.62,13.86-13,15.88-18.43,13.29-5.43-2.6-7.87-8.82-1.25-22.69,12.06-25.26,27.73-32.76,27.73-32.76,0,0,4.18,16.54-8.06,42.16Z"/><g><path class="cls-8" d="M762.2,1225.05l-2.86,.52c-.08-.44-8.32-44.81-40.15-104.45-29.37-55.03-85.41-134.68-185.58-201.65l1.62-2.42c100.72,67.34,157.06,147.46,186.59,202.81,32.02,60.01,40.31,104.74,40.39,105.19Z"/><path class="cls-8" d="M640.46,1007.36l-2.77-.87c31.7-100.74-29.68-195.97-30.31-196.92l2.43-1.6c.63,.96,62.77,97.32,30.65,199.39Z"/><path class="cls-8" d="M585.85,973.28c-28.51,7.73-53.92-.7-54.21-.8l.94-2.75c.32,.11,32.88,10.87,65.09-3.77l1.2,2.65c-4.36,1.98-8.72,3.51-13.02,4.68Z"/><path class="cls-8" d="M527.49,904.32c18.48,9.37,21.77,16.51,19.05,21.88-2.72,5.37-10.43,6.94-28.91-2.43-33.67-17.07-45.01-35.04-45.01-35.04,0,0,20.71-1.73,54.87,15.59Z"/><path class="cls-8" d="M536.7,961.36c20.45,3.36,25.74,9.18,24.76,15.12-.98,5.94-7.85,9.76-28.3,6.4-37.25-6.12-53.48-19.84-53.48-19.84,0,0,19.23-7.89,57.01-1.68Z"/><path class="cls-8" d="M602.43,920.79c7.3,13.52,5.17,19.86-.13,22.72-5.3,2.86-11.77,1.16-19.06-12.36-13.29-24.63-10.12-41.71-10.12-41.71,0,0,15.83,6.37,29.31,31.36Z"/><path class="cls-8" d="M612.64,794.99c9.93,18.18,8.6,25.93,3.32,28.82-5.29,2.89-12.52-.18-22.46-18.37-18.09-33.12-17.27-54.36-17.27-54.36,0,0,18.05,10.3,36.41,43.91Z"/></g></g><path class="cls-8" d="M1060.17,1527.67s78.99-420.53-35.92-437.68c-114.92-17.15,9.5,293.52-17.37,415.21l53.29,22.47Z"/><g><path class="cls-25" d="M545.73,1198.18c61.55,42.67,7.87,140.37,92.8,153.33,84.95,12.92,80.61,5.34,103.79,54.18,0,0,1.02,38.33,29.43,56.42,112.12,71.35,351.59-38.91,266.3-189.76-6.16-10.89-18.28-19.13-32.01-27.52-74.48-45.44-114.45-19.18-138.27-139.03-23.83-119.89-164.78-20.62-216.22-47.5-51.44-26.88-91.86-62.41-156.94-23.08-65.1,39.38-10.47,120.33,51.1,162.96Z"/><g><path class="cls-30" d="M945.59,1386.47l4.1-2.72c-1.2-1.81-124.04-182.86-471.31-336.43l-2,4.51c345.97,152.99,468.01,332.84,469.21,334.64Z"/><path class="cls-30" d="M783.54,1160.6c63.51-22.45,85.35-52.13,86.25-53.38l-4-2.88c-.21,.29-22,29.73-83.89,51.61l1.65,4.64Z"/><path class="cls-30" d="M755.18,1206.38c22.49-17.52,34.94-51.03,36.01-96.92,.8-34.36-5.07-64.01-5.13-64.3l-4.83,.97c.23,1.16,22.63,116.09-29.08,156.37l3.03,3.88Z"/><path class="cls-30" d="M666.17,1160.2c7.41-2.32,11.63-4.09,11.82-4.17l-1.94-4.53c-.88,.38-89.72,37.37-181.15-3.8l-2.02,4.49c73.67,33.17,145.66,16.67,173.28,8.01Z"/><path class="cls-30" d="M577.07,1246.58c30.9-14.81,46.69-35.87,54.5-50.92,8.5-16.39,9.63-29.15,9.67-29.69l-4.91-.41c-.04,.49-4.82,49.46-61.4,76.58l2.13,4.44Z"/></g></g><g class="cls-9"><path class="cls-8" d="M1522.81,899.15s-114.8-566.76,40.15-592.13c154.96-25.37-7.22,396.82,31.43,560.75l-71.58,31.38Z"/></g><g><path class="cls-8" d="M2002.06,556.26c-50.29,47.29,11.96,129.02-63.69,152.41-64,19.75-71.78,17.43-81.41,45.09-3.3,9.48-5.09,19.41-5.62,29.43-.63,12.01-4.2,31.3-19.33,44.45-92.47,80.32-325.78,12.46-268.6-136.66,4.13-10.77,14.06-19.93,25.43-29.45,61.69-51.58,101.71-33.08,107.08-145.58,5.38-112.53,147.38-41.25,190.61-72.77,43.22-31.51,75.22-69.41,139.9-42.42,64.71,27.02,25.95,108.25-24.37,155.5Z"/><g class="cls-7"><path class="cls-4" d="M1663.25,782.39l-4.11-1.92c.85-1.81,88.14-183.58,383.75-370.9l2.43,3.84c-294.5,186.61-381.22,367.18-382.07,368.99Z"/><path class="cls-4" d="M1780.17,554.42c-60.95-11.81-84.9-35.88-85.89-36.9l3.25-3.17c.23,.24,24.11,24.1,83.5,35.61l-.87,4.46Z"/><path class="cls-4" d="M1812.26,592.28c-22.88-12.9-38.8-41.75-46.03-83.43-5.41-31.21-4.1-59.04-4.09-59.31l4.53,.23c-.05,1.09-4.8,108.9,47.82,138.57l-2.23,3.95Z"/><path class="cls-4" d="M1887.1,538.06c-7.08-1.11-11.16-2.14-11.34-2.19l1.15-4.39c.86,.22,86.88,21.83,164.6-28.16l2.45,3.82c-62.63,40.28-130.5,35.05-156.86,30.92Z"/><path class="cls-4" d="M1980.08,604.64c-30.18-9.29-47.45-26.33-56.62-38.99-9.98-13.78-12.75-25.26-12.87-25.75l4.42-1.04c.1,.44,11.14,44.42,66.4,61.43l-1.34,4.34Z"/></g></g><path class="cls-8" d="M1669.73,349.77c-.03-22.34,7.06-28.99,15.81-29,8.75-.01,15.86,6.62,15.89,28.96,.06,40.69-15.77,60.37-15.77,60.37,0,0-15.88-19.05-15.93-60.33Z"/><path class="cls-8" d="M1740.8,365.23c15.38-16.2,25.1-16.13,31.45-10.11,6.35,6.03,6.92,15.73-8.45,31.93-28.01,29.51-53.04,32.86-53.04,32.86,0,0,1.63-24.75,30.05-54.69Z"/><path class="cls-16" d="M2303.66,1505.9c0,60.44-385.04,109.44-860,109.44s-860-49-860-109.44,385.04-109.44,860-109.44,860,49,860,109.44Z"/><g><path class="cls-5" d="M976.69,1529.73c-.68,0-1.37-.1-2.06-.31-3.62-1.12-5.62-4.9-4.49-8.45l150.62-470.63c1.14-3.55,4.96-5.53,8.6-4.41,3.62,1.12,16.4,2.88,15.26,6.43l-161.39,472.65c-.92,2.88-3.62,4.72-6.54,4.72Z"/><path class="cls-5" d="M1027.66,1043.86h436.2c4.12,0,7.46,3.13,7.46,7h0c0,3.86-.03,16.51-4.15,16.51l-437.09-5.76c-6.88,.28-9.87-6.89-9.87-10.75h0c0-3.86,3.34-7,7.46-7Z"/><path class="cls-4" d="M1864.34,1490.08l-639.97,47.53c-26.19,1.95-49.73-15.95-54.85-41.71l-64.88-326.45-8.43-42.41-12.86-64.74-3.67-18.46-71.46-359.53c-6.39-32.16,18.21-62.12,50.99-62.12h634.88c24.45,0,45.6,17.03,50.8,40.92l20.92,96.06,145.48,667.99c6.72,30.88-15.43,60.57-46.95,62.91Z"/></g><g><path class="cls-5" d="M835.67,1042.25s40.1,352.02,22.64,362.15c-17.46,10.13-25.03-12.61-34.18-49.08-9.15-36.47-53.87-301.37-53.87-301.37l65.4-11.69Z"/><polygon class="cls-4" points="833.22 987.06 835.67 1042.25 770.27 1053.94 760.63 1000.03 833.22 987.06"/><path class="cls-24" d="M833.22,987.06s32.7-59.67,5.27-95.53c-14.46-18.9-39.88-35.94-60.7-47.83-13.76-7.86-30.9,2.28-30.53,18.12,.5,21.31-1.52,47.66-12.09,65.28-16.32,27.23,25.46,72.93,25.46,72.93l72.58-12.97Z"/></g><g><path class="cls-23" d="M938.89,1123.32s-44.33,268.02-59.34,271.83c-15,3.8-15.81-14.55-14.9-43.37,.91-28.82,23.55-233.57,23.55-233.57l50.69,5.11Z"/><polygon class="cls-4" points="948.67 1082.1 938.89 1123.32 888.2 1118.21 892.41 1076.43 948.67 1082.1"/><path class="cls-24" d="M948.67,1082.1s34.46-31.45,21.75-63.66c-6.85-17.37-21.94-37.36-34.39-52.1-6.54-7.75-19.13-4.34-20.93,5.64-2.87,15.89-9.95,35.96-26.9,52.13-17.61,16.8,4.21,52.32,4.21,52.32l56.25,5.67Z"/></g><path class="cls-4" d="M760.04,1264.05l-36.85,179.07c-5,24.29,18.68,46.34,49.76,46.34h159.65c28.87,0,51.85-19.16,50.35-41.99l-11.75-179.07c-1.39-21.21-23.52-37.85-50.35-37.85h-111.05c-24.71,0-45.79,14.19-49.76,33.5Z"/><g><path class="cls-24" d="M2051.59,1448.39s-.35,13.82-9.7,17.72c-9.35,3.9-36.45,7.42-26.32,16.3,5.81,5.1,33.19,1.8,40.92,1.8,7.73,0,14.99,3.37,20.73-1.8,6.32-5.69,0-34.02,0-34.02,0,0-6.67,3.47-12.67,3.32-8.64-.22-12.96-3.32-12.96-3.32Z"/><path class="cls-24" d="M2158.98,1448.38s-.35,13.82-9.7,17.72c-9.35,3.9-36.44,7.42-26.32,16.3,5.81,5.1,33.19,1.8,40.91,1.8,7.73,0,14.99,3.37,20.73-1.81,6.32-5.69,0-34.02,0-34.02,0,0-6.67,3.47-12.67,3.32-8.64-.22-12.96-3.32-12.96-3.32Z"/><path class="cls-19" d="M1982.1,1069.55s-1.73,57.84,16.73,168.81c13.33,80.11,29.06,160.83,36.78,199.53,2.76,13.84,14.4,23.97,28.2,24.52l7.42,.3c14.92,.6,27.03-12.22,25.94-27.46l-18.73-261.83-4.62-86.18-91.73-17.71Z"/><path class="cls-24" d="M2150.98,1120.46c-.85,7.04-40.66,6.19-89.4,.02-48.74-6.17-86.68-16.73-85.83-23.77,.85-7.04,40.17-7.9,88.91-1.73,48.74,6.17,87.17,18.44,86.32,25.48Z"/><path class="cls-19" d="M2038.05,1110.87l104.06,334.27c4.36,13.99,16.95,23.58,31.3,23.83l6.25,.11c14.77,.25,26.06-13.4,23.36-28.26l-56.92-314.09c-.83-3.73-3.58-6.7-7.18-7.74-19.52-5.63-102.79-21.94-100.88-8.11Z"/><path class="cls-29" d="M2134.71,928s-13.84-38.95-63.17-37.18c-49.32,1.77-86.56,66.58-95.79,205.88,0,0,80.76-17.71,175.38,23.61,0,0,5.24-135.53-16.42-192.31Z"/><path class="cls-29" d="M2169.35,925.66l-34.94,22.37s-89.82,8.99-113.66,4.66c-23.84-4.33-27.55-21.86-27.55-21.86,0,0,22.68-31.11,65.84-38.84,4.06-.73,8.14-.85,12.5-1.17,7.32-.52,14.64-.29,21.82,.48,42.64,4.6,75.99,34.36,75.99,34.36Z"/><path class="cls-10" d="M2084.56,1260.28l-22.38-68.03c-5.03-15.3-15.38-28.07-29.14-35.95l.87-1.52c14.14,8.1,24.77,21.21,29.94,36.92l22.38,68.03-1.66,.55Z"/><g><path class="cls-23" d="M2037.72,882.15c-.27-.06-6.63-1.61-8.52-6.17-1-2.4-.54-5.18,1.35-8.26,.84-1.37,1.62-2.61,2.33-3.74,4.94-7.88,6.61-10.53,5.31-16.69l.56-.12c1.34,6.39-.49,9.31-5.39,17.12-.71,1.13-1.49,2.37-2.33,3.73-1.79,2.91-2.23,5.51-1.31,7.73,1.78,4.29,8.06,5.82,8.13,5.84l-.13,.56Z"/><path class="cls-23" d="M2038.46,847.23s2.19,9.89-4.37,20.25c-6.55,10.35,.58,17.92,9.46,13.94,8.88-3.98,12.26,7.34,23.61,1.08,11.35-6.26-28.7-35.26-28.7-35.26Z"/><path class="cls-26" d="M2090.92,890.97c-4.9-.53-9.16-3.6-11.11-8.13l-6.11-14.2-1.77-4.12-10.43-24.22,1.81,25.11,1.09,15.07,.31,4.3c.25,3.5-2.2,6.61-5.66,7.23h-.06c-1.86,3.03-4.42,9.16,3.24,11.6,9,2.86,23.56-4.22,28.78-12.62h-.08Z"/><path class="cls-24" d="M2073.71,868.22c0,.14-.01,.28-.03,.42-.6,8.09-9.25,11.87-9.25,11.87l-.05-.04-1.09-15.07c2.65-.97,6.42-1.97,8.62-.88,1.15,.57,1.88,1.7,1.8,3.7Z"/><path class="cls-26" d="M2036.76,844.31c0-16.07,10.56-29.1,23.59-29.1s23.59,13.03,23.59,29.1-10.56,29.1-23.59,29.1-23.59-13.03-23.59-29.1Z"/><path class="cls-26" d="M2080.78,848.7c-2.67,2.55-6.41,2.81-8.34,.58-1.94-2.23-1.34-6.1,1.33-8.65,2.67-2.55,6.41-2.81,8.34-.58,1.94,2.23,1.34,6.1-1.33,8.65Z"/><path class="cls-14" d="M2047.64,863.14s8.06,.19,16.11-2.64c0,0,.67,7.94-8.06,8.47-5.07,.31-8.06-5.83-8.06-5.83Z"/><path class="cls-3" d="M2047.64,863.14s1.95,1.62,6.5,1.6c4.55-.02,9.62-4.24,9.62-4.24,0,0-9.71,2.67-16.11,2.64Z"/><path class="cls-28" d="M2058.07,844.59c-.16-.04-.29-.16-.36-.32-.11-.27,.02-.59,.3-.7,.16-.06,3.77-1.92,6.95,1.55,.2,.22,.2,.55-.02,.76-.21,.2-.51,.15-.76-.02-2.46-1.66-5.63-1.35-5.77-1.29-.11,.05-.23,.05-.34,.02Z"/><path class="cls-28" d="M2062.31,850.48c.04,1.28-.68,2.34-1.61,2.37-.93,.03-1.71-.98-1.75-2.26s.68-2.34,1.61-2.37c.93-.03,1.71,.98,1.75,2.26Z"/><path class="cls-28" d="M2038.91,847.38c-.16,.02-.33-.03-.45-.16-.2-.21-.2-.55,0-.76,.12-.12,2.76-3.21,7.01-1.21,.27,.12,.39,.44,.27,.71-.12,.27-.42,.33-.71,.27-2.91-.59-5.72,.9-5.82,1-.09,.08-.2,.13-.31,.15Z"/><path class="cls-28" d="M2045.08,851.22c.53,1.17,.26,2.42-.58,2.81-.85,.38-1.96-.26-2.49-1.42-.52-1.17-.26-2.42,.58-2.8,.85-.38,1.96,.26,2.48,1.42Z"/><path class="cls-23" d="M2050.33,820.48s.51,10.1,13.12,11.82c12.61,1.72,21.31,7.06,19.61,16.14-1.69,9.08-22.02,27.93-7.08,35.23,14.94,7.3,11.76-6.31,27.95-3.16,16.2,3.16,19.12-18.47,7.96-31.02-11.15-12.55-6.63-45.76-48.45-44.29-41.81,1.47-26.49,34.83-26.49,34.83,0,0,13.4-8.41,13.38-19.56Z"/><path class="cls-3" d="M2080.28,885.54c-3.15-1.27-5.08-3.16-5.75-5.62-1.84-6.77,6.05-17,13.02-26.03,1.83-2.38,3.56-4.62,5.1-6.76,4.26-5.94,4.62-12.75,.98-18.21-4-5.99-11.61-8.52-19.86-6.6-8.23,1.91-13.89,.19-17.19-1.6-3.58-1.93-5.19-4.29-5.26-4.39l.28-.19c.07,.1,6.56,9.44,22.09,5.84,8.4-1.95,16.15,.64,20.22,6.75,3.67,5.5,3.29,12.63-.99,18.6-1.54,2.15-3.27,4.39-5.1,6.77-6.91,8.96-14.75,19.12-12.96,25.73,.65,2.38,2.46,4.15,5.55,5.4l-.13,.32Z"/><path class="cls-5" d="M2038.04,866c-3.54-1.3-6.66-5.22-8.33-10.47-2.72-8.56-.81-18.07,4.26-21.21,1.89-1.2,4.01-1.38,6.13-.61,3.54,1.3,6.66,5.22,8.33,10.45h0c2.72,8.54,.81,18.07-4.26,21.22-1.14,.71-2.36,1.06-3.61,1.06-.83,0-1.68-.15-2.52-.46Zm9.39-21.5c-1.57-4.94-4.44-8.6-7.69-9.8-1.83-.65-3.62-.49-5.21,.5-4.69,2.91-6.4,11.89-3.82,20.01,1.57,4.93,4.45,8.6,7.69,9.8,1.81,.64,3.62,.49,5.2-.5,4.7-2.93,6.41-11.91,3.82-20.01h0Z"/><g class="cls-17"><path class="cls-3" d="M2075.71,838.62c1.89,8.31-1.13,17.23-6.75,19.93-5.62,2.7-11.72-1.85-13.61-10.16-1.89-8.31,1.13-17.23,6.76-19.93,5.62-2.7,11.72,1.85,13.61,10.16Z"/></g><g class="cls-17"><path class="cls-3" d="M2048.65,844.87c1.9,8.35-.63,17.4-5.64,20.22-5.01,2.82-10.62-1.66-12.51-10.01-1.9-8.35,.63-17.4,5.64-20.22,5.01-2.82,10.62,1.66,12.51,10.01Z"/></g><path class="cls-5" d="M2061.11,858.66c-3.62-1.76-6.39-5.73-7.59-10.91-2.06-8.87,1.3-18.46,7.49-21.37,2.49-1.17,5.13-1.15,7.66,.06,3.62,1.76,6.38,5.73,7.57,10.89h0c2.07,8.89-1.29,18.48-7.49,21.37-1.23,.59-2.5,.88-3.76,.88s-2.6-.32-3.88-.93Zm.34-31.34c-5.76,2.71-8.87,11.77-6.92,20.19,1.12,4.79,3.75,8.62,7.04,10.21,2.21,1.03,4.54,1.05,6.74,.05,5.77-2.72,8.87-11.77,6.92-20.19h0c-1.11-4.78-3.73-8.59-7.02-10.19-1.12-.55-2.28-.82-3.44-.82s-2.23,.26-3.32,.76Z"/><path class="cls-5" d="M2047.54,847.98c.22,0,.44-.08,.62-.23h0c.11-.09,2.65-2.08,7.03-1.24,.52,.08,1.05-.24,1.15-.77,.11-.53-.24-1.05-.77-1.14-5.29-1.11-8.52,1.53-8.66,1.64-.41,.35-.47,.97-.12,1.38,.19,.24,.47,.36,.75,.36Z"/></g><path class="cls-24" d="M2169.84,926.43c1.21,3.52-7.93,10.1-20.41,14.71-12.48,4.6-23.59,5.49-24.8,1.97-1.21-3.52,7.93-10.1,20.41-14.71,12.48-4.61,23.59-5.49,24.8-1.97Z"/><path class="cls-19" d="M2111.79,1112.83s-97.28-18.58-128.82-9.82l15.12,22.41,56.23,3.18,57.47-15.78Z"/><g><path class="cls-22" d="M2207.19,1200.25c3.91,24.89-168.54,112.22-191.2,108.1-10.79-1.96-39.9-64.18-68.77-133.75-19.73-47.55-39.34-98.54-52.9-136.07-8.28-22.91-14.32-40.81-16.73-49.87-12.23-45.59,12.59-76.55,12.59-76.55,0,0,25.55-29.69,53.82-30.43,28.27-.74,56.32,15.57,71.61,30.64,3.44,3.39,14.85,18.59,30.5,40.39,21.6,30.07,51.27,72.72,79.28,114.26,41.86,62.09,79.99,121.73,81.8,133.28Z"/><path class="cls-29" d="M1920.5,864.88l-7.48-11.04-25.67,14.51,4.47,10.69c3.67,8.76,2.91,18.76-2.07,26.85-5.6,9.1-11.87,21.31-11.09,29.28,0,0,58.75-1.24,87.43-50.85,0,0-10.52-3.32-22.64-5.09-9.33-1.36-17.67-6.55-22.96-14.35Z"/><g><path class="cls-23" d="M1842.46,867.4l6.74,20.13c2.81,8.39,12.57,12.14,20.27,7.79l75.3-42.57c7.49-4.23,9.46-14.13,4.17-20.91l-12.96-16.61c-4.29-5.49-11.95-7.02-18.02-3.59l-69.07,39.05c-5.87,3.32-8.56,10.33-6.42,16.72Z"/><rect class="cls-27" x="1858.84" y="847.75" width=".98" height="49.88" transform="translate(-170.84 561.11) rotate(-16.42)"/><rect class="cls-27" x="1874.65" y="839.19" width=".98" height="49.57" transform="translate(-184.2 716.57) rotate(-20.64)"/><rect class="cls-27" x="1894.08" y="828.49" width=".98" height="49" transform="translate(-178.35 994.35) rotate(-28.14)"/><rect class="cls-27" x="1930.36" y="807.45" width=".98" height="50.06" transform="translate(-68.25 1484.22) rotate(-41.38)"/><polygon class="cls-27" points="1926.89 862.91 1898.51 822.68 1899.31 822.12 1927.7 862.34 1926.89 862.91"/></g><path class="cls-23" d="M2125.39,1066.96s-34.61,73.91-178.17,107.63c-19.73-47.55-39.34-98.54-52.9-136.07,0,0,96.26-23.87,151.79-85.82,21.6,30.07,51.27,72.72,79.28,114.26Z"/><path class="cls-2" d="M1982.12,1297.23s17.77,32.76,26.41,32.06c8.64-.69,197.84-93.37,217.71-118.14,0,0,2.13-21.53-2.78-31.54-4.91-10.02-17.96-8.66-34.11,.47-16.15,9.13-215.58,103.25-207.21,117.15Z"/></g><path class="cls-26" d="M2084.14,1048.14l-.42-25.53c-.06-3.49,2.63-6.41,6.11-6.66,17.7-1.27,30.09-6.76,36.88-16.36,9.42-13.33,8.43-34.03,5.8-48.39-1.34-7.35,1.08-12.26,9.96-16.97,0,0,7.64-4.2,17.05-5.8,3.77-.64,7.52,.87,8.49,4.57,1.52,5.79,3.49,14.8,4.44,25.4,2.23,25.18-2.62,47.08-14.04,63.34-14.02,19.95-36.62,30.99-67.23,32.87-3.76,.23-6.97-2.7-7.03-6.46Z"/><g class="cls-7"><path class="cls-18" d="M2149.23,1015.08c-1.24,0-2.36-.37-3.27-1.1-2.78-2.24-2.48-7.25,.67-11.17,1.49-1.85,3.4-3.2,5.37-3.8,2.09-.64,4-.37,5.4,.76,2.78,2.24,2.48,7.25-.67,11.17-1.49,1.85-3.4,3.2-5.37,3.8-.74,.22-1.46,.33-2.14,.33Zm4.9-14.69c-.51,0-1.06,.09-1.63,.26-1.64,.5-3.25,1.65-4.53,3.24-2.52,3.13-2.94,7.14-.93,8.76,.94,.76,2.3,.92,3.83,.46,1.64-.5,3.25-1.65,4.53-3.24h0c2.52-3.13,2.95-7.14,.93-8.76-.59-.48-1.34-.72-2.2-.72Z"/></g><g><path class="cls-26" d="M2096.33,1014.32s-6.22-18.81-16.86-23.42c-10.64-4.61-27.72-2.44-21.73,1.81,5.99,4.26,15.15,7.58,15.15,7.58,0,0-19.9-6.18-19.33-.9,.57,5.28,17.93,10.49,17.93,10.49,0,0-24.27-5.47-22.11-.65,2.15,4.81,20.62,8.84,20.62,8.84,0,0-22.78-4.19-20.15,1.35,2.63,5.53,18.85,3.34,19.42,8.62,.57,5.28,4.62,26.06,19.49,26.27l7.58-39.98Z"/><path class="cls-21" d="M2079.98,1004.67c-1.44-3.04-7.1-3.94-7.16-3.95l.13-.85c.25,.04,6.17,.98,7.8,4.43l-.77,.37Z"/><path class="cls-21" d="M2080.08,1015.14c-3.02-4.03-8.59-4.83-8.65-4.83l.11-.85c.25,.03,5.99,.85,9.22,5.17l-.69,.51Z"/><path class="cls-21" d="M2077.98,1022.91c-1.26-3.36-7.99-4.42-8.05-4.43l.13-.85c.3,.04,7.29,1.15,8.73,4.97l-.8,.3Z"/></g><path class="cls-26" d="M1881.9,1032.28s-6.74-13.14,5.3-19.21c15.34-7.73,41.86-2.64,32.2,2.38-8.56,4.46-15.31,5.92-15.31,5.92,0,0,27.97-6.25,27.2,1.57-.77,7.83-30.86,14.48-30.86,14.48,0,0,34.71-4.79,31.59,2.36-3.12,7.16-30.41,13.37-30.41,13.37,0,0,33.67-6.51,29.85,1.71-3.82,8.23-21.92,8.07-29.6,9.75-7.26,1.59-10.64-2.57-11.67-9.69,0,0-5.15-6.48-4.65-11.3,.19-1.85-1.82-3.2-2.25-4.43-.82-2.36-1.41-6.93-1.41-6.93Z"/></g><polygon class="cls-12" points="1853.08 1396.46 1265.38 1400.17 1173.23 1072.17 1132.14 925.84 1069.01 701.16 1631.41 657.19 1853.08 1396.46"/><g><path class="cls-16" d="M643.86,1476.61s-36.34-37.05-23.84-58.15c12.5-21.1,33.61,45.33,33.61,45.33,0,0-10.94-78.55,11.72-79.92,22.66-1.36,0,79.92,0,79.92,0,0,8.4-18.95,16.61-20.12,8.21-1.17,5.86,16.07-8.79,32.95h-29.31Z"/><path class="cls-20" d="M646.46,1477.54c-1.71-1.75-41.77-43.03-27.23-67.56,2.3-3.88,5.06-5.67,8.2-5.3,6.27,.71,13.63,10.61,21.88,29.42,2.51,5.73,4.74,11.45,6.48,16.19-2-20.56-4.33-61.52,6.99-75.35,2.46-3,5.46-4.63,8.91-4.84,3.38-.21,6.13,1,8.22,3.59,10.18,12.6,.98,57.11-4.08,77.94,3.77-6.11,9.12-12.92,14.58-13.7,2.59-.37,4.65,.6,5.8,2.72,3.3,6.05-1.25,21.49-14.58,36.84l-2.01-1.74c13.1-15.09,16.7-29.34,14.25-33.82-.62-1.14-1.6-1.57-3.09-1.36-7.03,1-15.24,16.26-17.81,22.05l-2.5-.9c.05-.18,5.02-18.08,8.35-37.69,4.36-25.63,4.01-42.46-1-48.67-1.54-1.9-3.5-2.75-5.99-2.6-2.72,.17-5.02,1.43-7.01,3.87-14.3,17.46-5.14,84.59-5.04,85.26l-2.58,.59c-4.74-14.93-19.39-53.93-30.09-55.16-2.04-.22-3.87,1.08-5.61,4.02-13.5,22.78,26.44,63.93,26.84,64.35l-1.9,1.86Z"/></g><path class="cls-22" d="M1765.81,759.18c-84.86,1.19-99.1,46.05-99.1,46.05l-174.17-25.27c4.22-66.54,38.62-127.62,82.25-157.76h119.3c24.45,0,45.6,17.03,50.8,40.92l20.92,96.06Z"/><g><g><path class="cls-19" d="M1507.53,1034.51h0c8.12,2.44,16.68-2.17,19.11-10.29l25.92-86.35c2.44-8.12-2.17-16.67-10.29-19.11h0c-8.12-2.44-16.67,2.17-19.11,10.29l-25.93,86.35c-2.44,8.12,2.17,16.68,10.29,19.11Z"/><path class="cls-19" d="M1471.66,917.31l125.91,37.8c10.16,3.05,20.87-2.71,23.92-12.88l9.12-30.37-162.7-48.85-9.12,30.37c-3.05,10.16,2.71,20.87,12.88,23.92Z"/><rect class="cls-29" x="1467.98" y="862.51" width="169.88" height="25.46" transform="translate(2788.56 2160.08) rotate(-163.29)"/><path class="cls-24" d="M1671.05,819.2c-.26,3.85-1.66,7.71-4.34,11.06-12.43,15.58-26.36,37.01-28.78,57.22l-162.7-48.85s3.22-25.27,12.36-49.33c1.29-3.37,2.95-6.5,4.94-9.34,1.06-1.53,2.22-2.98,3.47-4.34,7.32-8.02,90.53,4.31,139.92,20,23.67,7.52,35.33,20.69,35.12,23.59Z"/></g><g><path class="cls-26" d="M1884.91,1230.86h0c2.11-.17,3.97,1.41,4.14,3.52l2.66,32.69c.17,2.11-1.41,3.97-3.52,4.14h0c-2.11,.17-3.97-1.41-4.14-3.52l-2.66-32.69c-.17-2.11,1.41-3.97,3.52-4.14Z"/><path class="cls-26" d="M1875.11,1231.66h0c2.11-.17,3.97,1.41,4.14,3.52l2.98,36.56c.17,2.11-1.41,3.97-3.52,4.14h0c-2.11,.17-3.97-1.41-4.14-3.52l-2.98-36.56c-.17-2.11,1.41-3.97,3.52-4.14Z"/><path class="cls-26" d="M1870.92,1212.84l1.13,.76c2.12,1.42,2.69,4.32,1.27,6.45l-13.86,20.67c-1.42,2.12-4.32,2.69-6.45,1.27l-1.14-.76c-2.12-1.42-2.69-4.32-1.27-6.45l13.86-20.67c1.42-2.12,4.32-2.69,6.45-1.27Z"/><path class="cls-26" d="M1865.31,1232.46h0c2.11-.17,3.97,1.41,4.14,3.52l2.39,29.31c.17,2.11-1.41,3.97-3.52,4.14h0c-2.11,.17-3.97-1.41-4.14-3.52l-2.39-29.31c-.17-2.11,1.41-3.97,3.52-4.14Z"/><path class="cls-26" d="M1890.05,1211.7s12.62,17.97,8.11,32.9c-1.56,5.17-30.49,6.73-33.57,1.52-3.08-5.2-2.77-25.15-2.77-25.15l28.24-9.27Z"/><path class="cls-26" d="M1894.65,1230.04h0c2.1-.17,3.96,1.41,4.13,3.51l2.38,29.25c.17,2.1-1.41,3.96-3.51,4.13h0c-2.1,.17-3.96-1.41-4.13-3.51l-2.38-29.25c-.17-2.1,1.41-3.96,3.51-4.13Z"/></g><g><path class="cls-26" d="M1513.83,1004.01l-.87,.62c-1.49,1.05-3.56,.7-4.62-.79l-11.65-16.43c-1.05-1.49-.7-3.56,.79-4.62l.87-.62c1.49-1.05,3.56-.7,4.62,.79l11.65,16.43c1.05,1.49,.7,3.56-.79,4.61Z"/><path class="cls-26" d="M1521.79,998.36l-.76,.54c-1.51,1.08-3.63,.71-4.71-.8l-15.17-21.39c-1.08-1.52-.71-3.63,.8-4.71l.76-.54c1.52-1.08,3.63-.71,4.71,.8l15.17,21.39c1.07,1.52,.71,3.63-.8,4.71Z"/><path class="cls-26" d="M1534.62,1012.68l-1.37-.08c-2.55-.14-4.52-2.34-4.38-4.9l1.38-24.85c.14-2.55,2.34-4.52,4.9-4.38l1.36,.08c2.55,.14,4.52,2.34,4.38,4.89l-1.38,24.85c-.14,2.55-2.34,4.52-4.9,4.38Z"/><path class="cls-26" d="M1529.44,992.94h0c-1.72,1.22-4.13,.81-5.36-.91l-17.01-23.99c-1.22-1.72-.81-4.13,.91-5.36h0c1.72-1.22,4.13-.81,5.36,.91l17.01,23.99c1.22,1.72,.81,4.13-.91,5.36Z"/><path class="cls-26" d="M1518.75,1023.42s-20.02-9.01-23.76-24.16c-1.29-5.24,18.41-27.04,23.72-24.14,5.31,2.9,19.59,25.92,19.59,25.92l-19.55,22.38Z"/><path class="cls-26" d="M1505.99,1009.6l-1.11,.79c-1.42,1-3.4,.67-4.4-.75l-9.38-13.22c-1-1.42-.67-3.39,.75-4.4l1.11-.79c1.41-1,3.4-.67,4.4,.75l9.38,13.22c1,1.42,.67,3.4-.75,4.4Z"/></g><path class="cls-26" d="M1856.92,1225.15c-14.86-40.19-39.34-96.79-71.59-138.14-7.47-9.58-10.46-13.13-15.61-18.07-4.14-3.98-1.84-15.8,4.89-22.96,6.32-6.71,18.32-9.13,20.81-7.32,4.23,3.08,9.65,9.7,18.15,20.24,29.53,36.63,54.99,87.37,78.12,155.41l-34.78,10.84Z"/><g class="cls-7"><path class="cls-18" d="M1840.38,1129.9c-1.03,0-2.1-.33-3.16-.97-1.64-1-3.05-2.66-3.96-4.67-1.94-4.27-1.05-8.86,1.98-10.24,3.03-1.37,7.08,.97,9.02,5.24h0c1.94,4.27,1.05,8.86-1.98,10.24-.6,.27-1.23,.41-1.89,.41Zm-3.28-14.68c-.42,0-.83,.08-1.21,.25-2.23,1.01-2.76,4.66-1.19,8.12,.79,1.73,1.97,3.14,3.34,3.97,1.27,.77,2.54,.94,3.56,.47,2.23-1.01,2.76-4.66,1.19-8.12-1.28-2.82-3.67-4.7-5.7-4.7Z"/></g><path class="cls-26" d="M1702.62,1021.38l-4.45-19.32-1.29-5.62-7.61-33.07-3.71,32.06-2.22,19.24-.7,6.09c-.48,4.13-3.07,4.82-6.42,8.19-1.35,1.37-9.99,9.63-1.23,14.3,10.91,5.82,32.55-.15,41.3-9.44-.06-.02-12.22-6.18-13.66-12.43Z"/><path class="cls-26" d="M1661.69,969.69c3.9-18.78,19.69-31.39,35.27-28.15,15.58,3.24,25.04,21.09,21.14,39.87-3.9,18.78-19.69,31.39-35.27,28.15-15.58-3.24-25.04-21.09-21.14-39.87Z"/><path class="cls-24" d="M1674.62,962.28c-16.47-.61-23.73-10.68-23.27-19.46,.59-11.27,8.42-20.71,16.36-15.91,7.94,4.8,5.16-5.72,13.18-6.22,14.98-.93,16.97,9.82,29.07,11.24,15.95,1.87,32.22,29.89,17.36,48.36,0,0-39.68-17.51-52.69-17.99Z"/><path class="cls-24" d="M1660.84,949.84s16.29,18.2,13.27,27.54c-3.02,9.34-2.71,13.1,7.16,18.94,9.87,5.83,.21,13.4,13.82,15.01,13.62,1.61,31.55-13.29,33.52-39.82,1.1-14.79-6.68-25.11-6.68-25.11l-61.1,3.45Z"/><path class="cls-26" d="M1665.28,976.3c2.2-2.67,5.92-3.25,8.31-1.28,2.39,1.96,2.54,5.73,.34,8.4-2.2,2.67-5.92,3.25-8.31,1.28-2.39-1.96-2.54-5.72-.35-8.4Z"/><path class="cls-24" d="M1723.85,976.49c-.17,0-.33-.11-.4-.28-1.29-3.44-4.97-5-5.01-5.02-.22-.09-.32-.34-.23-.55,.09-.22,.34-.32,.55-.23,.17,.07,4.05,1.71,5.47,5.51,.08,.22-.03,.46-.25,.55-.05,.02-.1,.03-.15,.03Z"/><path class="cls-24" d="M1718.32,969.19c-.2,0-.38-.14-.42-.34-.05-.23,.1-.45,.33-.5,.04,0,4.4-.95,4.55-4.45,.01-.23,.22-.41,.44-.41,.23,0,.42,.21,.41,.44-.18,4.16-5.18,5.23-5.23,5.24-.03,0-.06,0-.08,0Z"/><path class="cls-24" d="M1670.45,926.41c-.35,0-.71-.07-1.08-.21-1.34-.51-2.3-1.29-3.24-2.05-1.73-1.4-3.22-2.61-6.72-1.76-.23,.06-.46-.08-.51-.31-.05-.23,.08-.46,.31-.51,3.91-.95,5.71,.51,7.46,1.92,.88,.71,1.79,1.45,3.01,1.91,.62,.23,1.17,.2,1.69-.09,1.95-1.12,2.71-5.41,2.72-5.45,.04-.23,.27-.38,.49-.35,.23,.04,.39,.26,.35,.49-.03,.19-.84,4.73-3.13,6.04-.42,.24-.87,.36-1.33,.36Z"/><path class="cls-24" d="M1709.69,930.45c-6.27,0-10.9-5.01-11.1-5.23-.16-.17-.15-.44,.03-.6,.17-.16,.44-.15,.6,.03,.05,.05,5.05,5.46,11.4,4.91,.21-.01,.44,.15,.46,.39,.02,.23-.15,.44-.39,.46-.34,.03-.67,.04-1,.04Z"/><path class="cls-24" d="M1669.33,986.19c-.89,0-1.47-.24-1.49-.25-.1-.04-.15-.16-.11-.27,.04-.11,.17-.15,.27-.11,.15,.06,3.61,1.46,6.5-3.37,.06-.1,.18-.13,.28-.07,.1,.06,.13,.18,.07,.28-1.9,3.17-4.1,3.78-5.53,3.78Z"/><path class="cls-26" d="M1515.55,1021.18c-3.3-7.97,22.35-21.68,22.35-21.68,2.8-.6,24.4,48.8,71.24,53.18,16.68,1.56,47.91-15.59,50.99-18.79,.41-.43,27.83,24.97,27.83,24.97-5.58,5.8-17.92,26.41-39.92,34.29-45.5,16.29-119.43-18.44-132.49-71.97Z"/><path class="cls-24" d="M1718.48,1556.49s-.3,12.14-8.52,15.56c-8.21,3.42-32.01,6.51-23.12,14.31,5.1,4.48,29.14,1.58,35.93,1.58s13.16,2.96,18.21-1.58c5.55-5,0-29.87,0-29.87,0,0-5.86,3.05-11.13,2.91-7.59-.2-11.38-2.91-11.38-2.91Z"/><path class="cls-19" d="M1647.63,1190.25s-1.64,54.77,15.84,159.83c12.62,75.85,27.51,152.28,34.82,188.93,2.62,13.11,13.64,22.69,26.7,23.21l7.02,.28c14.13,.57,25.59-11.57,24.56-25.99l-17.73-247.9-4.37-81.59-86.85-16.77Z"/><path class="cls-24" d="M1796.25,1556.49s-.3,12.14-8.52,15.56c-8.21,3.42-32.01,6.51-23.12,14.31,5.1,4.48,29.14,1.58,35.93,1.58s13.16,2.96,18.21-1.58c5.55-5,0-29.87,0-29.87,0,0-5.86,3.05-11.12,2.91-7.59-.2-11.38-2.91-11.38-2.91Z"/><path class="cls-19" d="M1725.4,1190.25s-1.64,54.77,15.84,159.83c12.62,75.85,27.51,152.28,34.82,188.93,2.61,13.11,13.64,22.69,26.7,23.21l7.02,.28c14.13,.57,25.59-11.57,24.56-25.99l-17.73-247.9-4.37-81.59-86.85-16.77Z"/><path class="cls-5" d="M1779.78,1047s-13.48-33.08-77.37-24.45c-92.15,12.44-71.73,95.85-62.17,225.62,0,0,88.89-25.58,177.39-19.21,0,0-10.48-132.36-37.84-181.95Z"/><path class="cls-5" d="M1813.4,1050.95s-8.97,30.68-37.79,41.29c-27.39,10.08-123.55,27.45-143.74,13.05-44.59-31.79-25.83-56.95-25.83-56.95,0,0,32.61-8.83,74.96-23.74,10.54-3.71,27.75-5.7,40.23-5.36,67.91,1.87,92.17,31.71,92.17,31.71Z"/><path class="cls-5" d="M1817.8,1230.57c.75,6.57-38.45,14.73-87.6,20.08-49.15,5.35-89.21,4.08-89.96-2.48-.75-6.57,38.09-15.94,87.24-21.3,49.15-5.35,89.58-2.87,90.33,3.7Z"/><path class="cls-24" d="M1744.88,1373.54c-.25,0-.47-.18-.52-.44-10.18-56.03,17.6-92.11,17.88-92.47,.18-.23,.52-.27,.75-.09,.23,.18,.27,.51,.09,.75-.28,.35-27.76,36.08-17.67,91.62,.05,.29-.14,.56-.43,.62-.03,0-.06,0-.1,0Z"/><path class="cls-15" d="M1671.05,819.2c-2.11,1.6-4.64,2.87-7.65,3.55-16.05,3.61-16.71-17.69-23.26-23.91-6.54-6.23-13.42,1.31-29.81,3.27-16.38,1.96-14.08-13.1-27.19-16.83-13.1-3.71-18.34,10.27-26.2,7.04-7.86-3.23-1.64-11.17-7.54-13.8-5.9-2.62-11.47,14.74-31.45,13.76-19.98-.98-25.42-12.32-25.42-12.32l3.47-4.34c10.83-11.87,27.87-17.07,44.14-12.19l116.6,35.01c9.53,2.86,14.95,11.82,14.31,20.77Z"/></g><g><path class="cls-5" d="M1514.73,1334.56c24.13,7.23,28.36,200.49,14.85,219.14-6.43,8.88-75.12,8.24-150.34,4.21-51.41-2.76-105.86-7.11-145.57-11.1-24.24-2.43-42.99-4.73-52.2-6.46-46.39-8.68-63.59-44.44-63.59-44.44,0,0-15.73-35.87-4.18-61.68,11.55-25.81,38.38-44.06,58.58-51.34,4.55-1.64,23.18-5.35,49.61-10.05,36.45-6.48,87.74-14.81,137.3-22.11,74.08-10.91,144.34-19.52,155.54-16.17Z"/><path class="cls-4" d="M1088.41,1448.16l-13.18,1.98,1.99,29.42,11.57,.58c9.49,.48,18.17,5.49,23.32,13.47,5.79,8.99,14.08,19.92,21.61,22.66,0,0,24.27-53.51-8.07-100.82,0,0-7.54,8.05-14.37,18.21-5.26,7.82-13.54,13.11-22.86,14.5Z"/><g><path class="cls-23" d="M1056.95,1519.62l21.06,2.62c8.78,1.09,16.38-6.09,15.78-14.92l-5.85-86.3c-.58-8.58-8.66-14.64-17.06-12.79l-20.58,4.51c-6.81,1.49-11.5,7.75-11.03,14.7l5.37,79.17c.46,6.72,5.61,12.18,12.3,13.01Z"/><rect class="cls-27" x="1068.52" y="1481.75" width=".98" height="49.88" transform="translate(-589.04 2321.41) rotate(-80.81)"/><rect class="cls-27" x="1067.49" y="1463.89" width=".98" height="49.57" transform="translate(-507.48 2423.9) rotate(-85.04)"/><rect class="cls-27" x="1041.98" y="1465.92" width="48.99" height=".98" transform="translate(-63.02 47.97) rotate(-2.5)"/><rect class="cls-27" x="1038.63" y="1424.33" width="50.06" height=".98" transform="translate(-347.12 342.6) rotate(-15.77)"/><rect class="cls-27" x="1040.42" y="1444.67" width="49.23" height=".98" transform="translate(-226.27 198.03) rotate(-9.61)"/></g><path class="cls-23" d="M1359.19,1350.73s51.69,63.15,20.06,207.18c-51.41-2.76-105.86-7.11-145.57-11.1,0,0,20.07-97.12-11.79-173.97,36.45-6.48,87.74-14.81,137.3-22.11Z"/><path class="cls-13" d="M1504.92,1579.44s37.22-1.87,40.32-9.96c3.11-8.09,1.31-218.77-12.45-247.38,0,0-18.49-11.22-29.65-11.12-11.16,.1-15.57,12.45-14.32,30.97,1.25,18.51-.05,239.03,16.1,237.5Z"/></g><path class="cls-23" d="M1598.21,1310.98c-22.94-.57-22.94-43.16-37.34-50.37-14.42-7.2-1.5,25.55-23.68,30.79-22.18,5.25-27.78-30.79-48.57-49.14-20.79-18.34-8.33,19.01-35.85,10.49-27.52-8.52-59.26-209.42-279.53-180.58l-41.1-146.33c109.84,4.17,481.18,42.21,487.04,366.22,0,0,1.97,19.48-20.96,18.92Z"/><path class="cls-29" d="M1181.83,887.84s168.13,9.46,256.08-109.91c0,0,9.83-16.08-13.55-24.63-23.38-8.54-12.79-24.37-33.14-24.36-20.35,0-74.88,87.17-145.66,75.52-70.79-11.65-73.24,1.46-66.37,11.9,6.86,10.44-11.69,12.65-6.7,28.08,5,15.43-10.44,35.8,9.34,43.39Z"/><path class="cls-29" d="M1223.34,792.89c-19.83,0-32.76-3.11-33.48-3.29-1.84-.45-2.97-2.32-2.52-4.16,.46-1.84,2.32-2.97,4.16-2.52h0c.23,.06,23.23,5.56,54.48,1.69,28.72-3.55,70.52-15.99,106.62-55.07,1.29-1.4,3.47-1.48,4.86-.19,1.4,1.29,1.48,3.47,.19,4.86-37.6,40.7-81.18,53.61-111.12,57.26-8.43,1.03-16.25,1.41-23.21,1.41Z"/><path class="cls-29" d="M1372.18,879.46c-1.21,0-2.39-.64-3.01-1.78-.92-1.66-.31-3.76,1.35-4.68,72.06-39.82,72.27-90.13,72.26-90.64-.02-1.9,1.5-3.46,3.4-3.48,.01,0,.03,0,.04,0,1.88,0,3.42,1.51,3.44,3.4,0,.57,.07,14.16-9.37,32.95-8.59,17.1-27.08,42.04-66.44,63.79-.53,.29-1.1,.43-1.66,.43Z"/><path class="cls-23" d="M1380.38,1256.82c-2.45,0-4.57-1.83-4.87-4.32-4.16-34.4-14.39-63.62-30.39-86.85-12.72-18.47-29.13-33.26-48.78-43.94-33.5-18.22-64.96-18.18-65.3-18.2h-.04c-2.7,0-4.89-2.18-4.91-4.88-.02-2.71,2.16-4.93,4.88-4.95,1.38,0,34.36-.03,70.07,19.39,21.01,11.43,38.57,27.24,52.17,47,16.91,24.56,27.7,55.25,32.05,91.25,.33,2.69-1.59,5.14-4.29,5.47-.2,.02-.4,.04-.6,.04Z"/><path class="cls-23" d="M1475.23,1017.96c-1.16,0-2.33-.41-3.26-1.24-27-24.01-61.76-44.11-103.31-59.75-33.4-12.57-71.23-22.29-112.42-28.89-70.32-11.27-126.77-9.5-127.34-9.48-2.73,.1-4.99-2.03-5.08-4.74-.09-2.71,2.03-4.99,4.74-5.08,.57-.02,57.82-1.83,129.04,9.57,41.88,6.7,80.38,16.59,114.42,29.38,42.74,16.07,78.56,36.81,106.49,61.64,2.03,1.8,2.21,4.91,.41,6.94-.97,1.09-2.32,1.65-3.67,1.65Z"/><g><path class="cls-26" d="M883.17,403.68s-23.21-4.3-29.81-14.27c-5.44-8.22-3.85-25.02,9.66-33.72,6.92-4.46,25.75-4.53,30.13-4.93,12.45-1.15,24.43,26.08,24.43,26.08l-34.41,26.84Z"/><path class="cls-26" d="M1101.64,432.39l-26.47-42.76,13.24,21.38-13.21-21.4c-17.43,10.73-70.19,37.05-104.58,30.08-26.76-5.43-48.83-37.21-54.45-47.91l-44.53,23.37c.84,1.6,8.6,16.07,22.54,31.95,19.84,22.6,42.82,37.08,66.45,41.87,26.41,5.35,58.43,.64,95.17-14,25.95-10.35,45.04-22.1,45.84-22.59Z"/><path class="cls-24" d="M961.48,827.12s-3.91,25.52-14.32,38.53c-6.86,8.58-25.8,25.56-12.33,31.22,10.75,4.52,31.46-15.6,38.18-20.61,6.72-5.01,16.86-14.48,14.61-22.56-4.66-16.73-3.12-37.75-3.12-37.75l-23.01,11.17Z"/><path class="cls-24" d="M1013.48,807.32s5.21,25.29-.03,41.11c-3.45,10.43-15.3,32.93-.71,33.56,11.65,.5,24.07-25.57,28.63-32.6,4.56-7.03,10.77-19.44,5.86-26.23-10.18-14.07-16.05-34.31-16.05-34.31l-17.69,18.47Z"/><path class="cls-23" d="M1006.18,825.2c-139.58-93.11-132.69-174.67-113.34-206.57,22.46-37.04,58.03-66.34,112.55-79.4,14.53-3.48,28.37-5.5,39.93-6.66,16.74-1.68,31.16,11.69,30.71,28.51l-1.25,47.5h.11c-23.29-.48-93.94,6.62-112.46,44.27-3.85,7.83,90.11,118.18,86.6,137.98-3.97,22.4-29.2,43.48-42.85,34.37Z"/><path class="cls-23" d="M952.06,839.14c-16.05,.08-28.85-13.4-27.91-29.43,2.11-35.62,8.72-96.25,29.47-142.06,11.77-25.98,30.47-49.6,55.6-70.21,18.95-15.54,41.62-29.43,67.39-41.28,42.87-19.71,73.74-16.96,73.74-16.96l43.77,37.34c-.31,.06,7.24,52.29-47.22,82.67-55.76,31.1-98.34,7.98-120.94,52.21-16.13,31.57-22.3,73.44-24.35,102.69-.98,13.99-12.61,24.85-26.63,24.92l-22.92,.11Z"/><path class="cls-10" d="M929.45,760.58l-.86-.06c.02-.32,2.25-32.2,12.1-68.25,9.11-33.31,26.77-77.1,59.25-96.53l.44,.74c-17.79,10.64-42.43,35.94-58.86,96.01-9.83,35.97-12.05,67.78-12.08,68.1Z"/><path class="cls-10" d="M1000.59,821.13h-.86c.35-49.61,16.58-87.91,16.74-88.29l.79,.34c-.16,.38-16.32,38.52-16.67,87.95Z"/><path class="cls-5" d="M1174.41,408.03s-14.66-38.9-69.1-35.98c-54.44,2.92-92.02,15.24-99.92,167.17,0,0,45.82,45.29,159.1,52.2,16.75,1.02,37.04,6.8,37.97-9.96,1.84-33.37-5.02-97.11-28.04-173.43Z"/><path class="cls-5" d="M1222.23,414.69l-47.84,15.15s-99.04,11.59-125.44,7.36c-26.4-4.23-33.95-25.11-33.95-25.11,0,0,27.57-32.04,75.11-41.32,4.47-.88,9.1-1.55,13.91-1.98,8.08-.71,15.84-1.45,23.77-.62,77.45,8.12,94.43,46.52,94.43,46.52Z"/><path class="cls-24" d="M1222.23,414.69c2.56,5.7-8.64,11.06-22.38,16.15-13.74,5.09-25.99,6.12-27.37,2.29-1.38-3.83,8.65-11.06,22.38-16.15,13.74-5.09,25.7-6,27.37-2.29Z"/><path class="cls-26" d="M1113.85,361.46l-8.2-14.46-2.39-4.21-14.03-24.75,4.69,26.65,2.82,15.99,.89,5.06c.61,3.44-1.31,4.61-3.19,8.12-.76,1.42-5.72,10.13,2.43,11.79,10.16,2.07,26.12-7.92,30.93-17.47-.05,0-11.3-2.04-13.95-6.72Z"/><g><path class="cls-1" d="M1065.89,312.7s-.27,6.79,3.17,14.48c3.44,7.69,7.3-13.91,7.3-13.91l-10.47-.58Z"/><path class="cls-26" d="M1068.59,329.72c-1.36-16.03,8.31-29.93,21.6-31.06,13.29-1.13,25.17,10.95,26.53,26.97,1.36,16.03-8.31,29.93-21.6,31.06-13.29,1.13-25.17-10.95-26.53-26.97Z"/><path class="cls-24" d="M1115.53,317.36l-11.68,1.31c-2.57,.29-5.16-.56-6.98-2.39-3.14-3.15-6.37-4.42-16.94-1.69-13.38,3.46-24.05-2.64-27.05-9.38-3.06-6.88,2.77-13.27,10.3-11.32,7.53,1.95,2.78-5.83,9.1-8.15,11.81-4.33,16.14,4.55,26.05,2.07,12.98-3.26,38.57,1.55,32.5,26.99l-15.29,2.55Z"/><path class="cls-28" d="M1091.15,326.75c-.14-.05-.25-.16-.3-.32-.08-.26,.06-.53,.32-.61,.15-.05,3.58-1.46,6.2,1.93,.17,.21,.14,.52-.08,.69-.21,.17-.48,.09-.69-.07-2.12-1.69-5.02-1.65-5.15-1.61-.1,.03-.21,.03-.31,0Z"/><path class="cls-28" d="M1094.57,332.44c-.06,1.17-.79,2.08-1.64,2.03-.85-.04-1.48-1.02-1.42-2.19,.06-1.17,.79-2.08,1.64-2.03,.85,.04,1.48,1.02,1.42,2.19Z"/><path class="cls-28" d="M1073.15,329.2c-.11,0-.23-.06-.31-.18-.13-.21-.12-.52,.04-.69,.09-.1,2.1-2.69,5-.51,.18,.14,.25,.43,.16,.67-.1,.24-.31,.27-.51,.19-2.02-.78-4.07,.34-4.15,.42-.07,.07-.14,.1-.22,.11Z"/><path class="cls-28" d="M1078.58,333.15c.39,1.1,.06,2.22-.74,2.51-.8,.28-1.76-.38-2.15-1.48-.39-1.1-.06-2.22,.74-2.51,.8-.28,1.76,.38,2.15,1.48Z"/><path class="cls-1" d="M1130.82,314.8s-4.16,18.75-15.08,22.44c0,0,6.21-14.95-14.58-18.69,0,0,16.9-6.58,29.66-3.75Z"/><path class="cls-26" d="M1117.11,327.65c-2.06,2.04-5.21,2.21-7.04,.37-1.83-1.84-1.64-4.99,.42-7.03,2.06-2.05,5.21-2.21,7.04-.37,1.83,1.84,1.64,4.99-.42,7.04Z"/><path class="cls-1" d="M1101.16,318.56s4.65,13.95,2.33,17.29c-2.32,3.34-21.26,8.7-30.97,7.19h0c1.86,9.21,10.09,15.89,19.47,15.43,3.1-.15,6.2-.83,9.16-2.04h0c6.03-2.47,11.56-6.4,12.88-12.78,.4-1.94-4.27-12.33-4.27-12.33,0,0-2.26-6.2,.73-10.34,0,0-5.13-2.92-9.33-2.42Z"/><path class="cls-3" d="M1078.38,347.15s7.79,.38,15.66-2.15c0,0,.45,7.7-8.01,8-4.92,.17-7.65-5.84-7.65-5.84Z"/><path class="cls-24" d="M1064.19,292.5l-.12-.65c3.13-.58,2.86-3.13,2.85-3.24l.65-.08s.36,3.27-3.38,3.97Z"/><path class="cls-3" d="M1075.28,311.65s-3.95-.28-8.08-1.46c-5.51-1.58-8.92-4.05-9.86-7.16-.66-2.16-.59-3.72,.19-4.77,1.25-1.67,4.07-1.63,6.55-1.6,.37,0,.73,.01,1.07,0v.33c-.35,0-.71,0-1.08,0-2.4-.03-5.12-.07-6.28,1.46-.72,.96-.77,2.42-.14,4.47,2.21,7.26,17.49,8.38,17.65,8.39l-.02,.33Z"/><path class="cls-3" d="M1094.23,291.15c-2.47,0-4.54-.35-6.16-.77-3.84-1.01-5.93-2.62-6.02-2.69l.2-.26s2.14,1.64,5.92,2.63c3.48,.92,9.13,1.46,16.23-1.13l.11,.31c-3.9,1.42-7.37,1.91-10.28,1.91Z"/></g><path class="cls-26" d="M1168.18,591.92l-18-44.18c36.53-14.88,31.96-86.17,26.56-112.3,0,0-.74-8,17.65-13.7,10.35-3.21,17.73-3.02,21.34-2.58,1.5,.18,2.73,1.27,3.1,2.73,2.06,8.01,8.62,35.63,7.1,66.48-3.34,67.5-33.25,93.56-57.76,103.54Z"/><path class="cls-26" d="M1163.46,553.35s-69.73-.54-63.3,22.96c3.18,11.61,40.22,17.88,53.94,14.77,13.72-3.12,9.36-37.72,9.36-37.72Z"/><g><path class="cls-11" d="M987.64,608.29c6.28,24.53,42.11,80.88,114,57.06,71.89-23.82,112.96-96.09,59.85-120.52-53.12-24.42-119.71,0-119.71,0-15.99,4.65-60.43,38.93-54.14,63.46Zm144.73-56.2s17.62,.24,24.26,7.49c6.62,7.25-10.74,19.62-26.24,12.22-15.48-7.38-9.56-16.33,1.98-19.71Z"/><path class="cls-23" d="M1113.9,604.44c3.82-2.82,8.64-3.9,13.35-3.38,6.21,.67,16.17,2.55,20.92,7.75,7.19,7.86-11.65,21.27-28.44,13.25-12.6-6.01-12.13-12.97-5.84-17.62Z"/><path class="cls-4" d="M1072.93,627.8c2.28-.96,4.78-1.28,7.25-1.09,6.33,.51,19.28,2.32,25.09,8.67,7.84,8.58-12.71,23.22-31.05,14.47-16.63-7.93-12.41-17.38-1.29-22.06Z"/><path class="cls-4" d="M1023.43,621.86c2.67-1.34,5.68-1.79,8.65-1.51,5.62,.54,15.55,2.19,20.16,7.24,6.63,7.25-10.74,19.61-26.23,12.22-13.27-6.33-10.82-13.81-2.58-17.95Z"/><path class="cls-6" d="M1013.39,581.4c3.29-1.69,7.02-2.34,10.7-2,6.94,.65,19.51,2.68,25.3,9.02,8.24,9.01-13.35,24.38-32.6,15.19-16.4-7.82-13.49-17.05-3.4-22.21Z"/><path class="cls-8" d="M1066.44,555.15c1.15-.42,2.39-.6,3.61-.52,4.64,.28,17.13,1.57,22.48,7.42,6.62,7.25-10.74,19.61-26.23,12.22-14.64-6.99-10.15-15.37,.14-19.12Z"/></g><path class="cls-26" d="M1150.95,556.77c-6.63-7.74-38.69-17.41-40.96-12.03-2.18,5.18,20.3,17.22,20.3,17.22,0,0,24.12-1.14,20.66-5.19Z"/><g><path class="cls-5" d="M881.92,307.67s45.08,194.88,36.24,201.57c-8.85,6.69-14.47-5.6-21.86-25.51-7.39-19.9-49.24-165.71-49.24-165.71l34.87-10.36Z"/><polygon class="cls-4" points="876.94 276.89 881.92 307.67 847.04 318.03 838.24 288.39 876.94 276.89"/><path class="cls-6" d="M876.94,276.89s13.88-35.34-3.44-53.83c-17.32-18.49-55.71-30.93-55.71-30.93,0,0,10.77,32.99-1.03,45.95-11.8,12.95,21.47,50.31,21.47,50.31l38.7-11.5Z"/><path class="cls-23" d="M865.83,216.19s.73,11.11-10.18,10.34c-10.9-.77-9.03,11.75-18.33,15.28-9.3,3.52-18.36-6.81-18.36-6.81,0,0,1.06-34.22-1.17-42.85-2.23-8.64,48.03,24.05,48.03,24.05Z"/></g><path class="cls-26" d="M849.79,386.81s-2.37,13.71,10.17,15.78c15.97,2.64,53-12.71,11.68-15.9-1.03-.08,26.52-.45,23.62-7.27-2.89-6.82-26.77-5.13-26.77-5.13,0,0,29.09-2.76,24.27-8.32-4.82-5.56-23.53-5.93-23.53-5.93,0,0,24.54-1.16,18.79-7.48-5.75-6.33-21.98-1.1-29.36-.45-6.98,.61-8.84,5.3-7.77,11.99,0,0-2.8,7.28-1,11.47,.69,1.61-.74,3.39-.78,4.62-.07,2.36,.68,6.63,.68,6.63Z"/><path class="cls-26" d="M918.34,375.59l-7.49-1.07c-2.94,1.81-6.78,.98-8.53-1.86,0,0-7.81-18.96-16.1-29.47-10.9-13.8,1.12-14.68,9.95-6.61,23.88,21.82,20.23,29.98,22.17,39.01Z"/></g><g><path class="cls-16" d="M1599.62,1555.31s-36.34-37.05-23.84-58.15c12.5-21.1,33.6,45.33,33.6,45.33,0,0-10.94-78.55,11.72-79.92,22.66-1.36,0,79.92,0,79.92,0,0,8.4-18.95,16.61-20.12,8.21-1.17,5.86,16.07-8.79,32.95h-29.31Z"/><path class="cls-20" d="M1602.22,1556.24c-1.71-1.75-41.77-43.03-27.23-67.57,2.3-3.88,5.06-5.67,8.2-5.3,6.27,.71,13.63,10.61,21.88,29.42,2.51,5.73,4.74,11.45,6.48,16.19-2-20.56-4.33-61.52,6.99-75.35,2.46-3,5.46-4.63,8.91-4.84,3.37-.21,6.13,1,8.22,3.58,10.18,12.6,.98,57.11-4.08,77.94,3.77-6.11,9.12-12.92,14.59-13.7,2.58-.37,4.64,.6,5.8,2.72,3.3,6.05-1.25,21.49-14.58,36.84l-2.01-1.74c13.1-15.09,16.7-29.34,14.25-33.82-.62-1.14-1.6-1.57-3.09-1.36-7.03,1-15.24,16.26-17.81,22.05l-2.5-.9c.05-.18,5.02-18.08,8.35-37.69,4.36-25.63,4.01-42.46-1-48.67-1.54-1.9-3.49-2.75-5.99-2.6-2.72,.16-5.02,1.43-7.01,3.87-14.3,17.46-5.14,84.59-5.05,85.26l-2.58,.59c-4.74-14.93-19.39-53.93-30.09-55.16-2.03-.23-3.88,1.08-5.61,4.02-13.5,22.78,26.44,63.93,26.84,64.35l-1.9,1.86Z"/></g><g><path class="cls-16" d="M1954.45,1431.53s-24.23-24.7-15.89-38.77c8.34-14.07,22.4,30.22,22.4,30.22,0,0-7.29-52.37,7.82-53.28,15.11-.91,0,53.28,0,53.28,0,0,5.6-12.63,11.07-13.42,5.47-.78,3.91,10.71-5.86,21.96h-19.54Z"/><path class="cls-20" d="M1956.19,1432.15c-.07-.07-7-7.18-12.67-16.15-7.74-12.25-9.58-21.97-5.48-28.9,1.53-2.58,3.37-3.78,5.47-3.54,7.1,.81,14.88,19.28,18.9,30.29-1.33-13.75-2.85-40.93,4.67-50.11,1.64-2,3.64-3.09,5.94-3.23,2.25-.14,4.09,.67,5.48,2.39,6.79,8.4,.65,38.08-2.72,51.96,2.51-4.07,6.08-8.61,9.72-9.13,1.72-.24,3.1,.4,3.87,1.81,2.2,4.04-.84,14.33-9.72,24.56l-1.34-1.16c8.74-10.06,11.13-19.56,9.5-22.55-.41-.76-1.07-1.05-2.06-.91-4.69,.67-10.16,10.84-11.88,14.7l-1.66-.6c.03-.12,3.34-12.06,5.57-25.12,2.91-17.09,2.68-28.31-.67-32.45-1.02-1.27-2.32-1.83-3.99-1.74-1.82,.11-3.34,.95-4.67,2.58-9.53,11.64-3.43,56.39-3.36,56.84l-1.72,.39c-3.16-9.95-12.93-35.96-20.06-36.77-1.35-.16-2.58,.72-3.74,2.68-9,15.19,17.62,42.62,17.89,42.9l-1.27,1.24Z"/></g><g><path class="cls-16" d="M1918.75,1557.43s-24.23-24.7-15.89-38.77c8.34-14.07,22.41,30.22,22.41,30.22,0,0-7.3-52.37,7.81-53.28,15.11-.91,0,53.28,0,53.28,0,0,5.6-12.64,11.07-13.42,5.47-.78,3.91,10.71-5.86,21.97h-19.54Z"/><path class="cls-20" d="M1920.49,1558.05c-.07-.07-7-7.18-12.67-16.15-7.74-12.25-9.59-21.97-5.48-28.9,1.53-2.59,3.38-3.78,5.47-3.54,7.1,.81,14.88,19.28,18.9,30.29-1.33-13.75-2.85-40.92,4.67-50.11,1.64-2,3.64-3.09,5.94-3.23,2.25-.13,4.09,.67,5.48,2.39,6.79,8.4,.65,38.08-2.72,51.96,2.51-4.07,6.08-8.61,9.72-9.13,1.72-.24,3.1,.4,3.87,1.81,2.2,4.04-.84,14.33-9.72,24.56l-1.34-1.16c8.74-10.06,11.13-19.56,9.5-22.55-.41-.76-1.07-1.05-2.06-.9-4.69,.67-10.16,10.84-11.87,14.7l-1.66-.6c.03-.12,3.35-12.06,5.57-25.13,2.91-17.09,2.68-28.31-.66-32.45-1.03-1.27-2.32-1.83-4-1.73-1.82,.11-3.35,.95-4.68,2.58-9.53,11.64-3.43,56.39-3.36,56.85l-1.72,.39c-3.16-9.95-12.93-35.96-20.06-36.77-1.37-.15-2.58,.72-3.74,2.68-9,15.19,17.62,42.62,17.89,42.9l-1.26,1.24Z"/></g><g><path class="cls-16" d="M2258.34,1497.63s-24.23-24.7-15.89-38.77c8.34-14.07,22.41,30.22,22.41,30.22,0,0-7.29-52.37,7.82-53.28,15.11-.91,0,53.28,0,53.28,0,0,5.6-12.63,11.07-13.42,5.47-.78,3.91,10.71-5.86,21.96h-19.54Z"/><path class="cls-20" d="M2260.08,1498.25c-.07-.07-7-7.18-12.67-16.15-7.74-12.25-9.58-21.97-5.48-28.9,1.53-2.59,3.37-3.78,5.47-3.54,7.1,.81,14.88,19.28,18.9,30.29-1.33-13.75-2.85-40.92,4.67-50.11,1.64-2,3.64-3.09,5.94-3.23,2.25-.13,4.09,.67,5.48,2.39,6.79,8.4,.65,38.08-2.72,51.96,2.51-4.07,6.08-8.61,9.72-9.13,1.72-.25,3.1,.4,3.87,1.81,2.2,4.04-.84,14.33-9.72,24.56l-1.34-1.16c8.74-10.06,11.13-19.56,9.5-22.55-.41-.76-1.07-1.05-2.06-.91-4.69,.67-10.16,10.84-11.88,14.7l-1.66-.6c.03-.12,3.34-12.06,5.57-25.13,2.91-17.09,2.67-28.31-.67-32.45-1.02-1.27-2.32-1.83-4-1.74-1.81,.11-3.34,.95-4.68,2.58-9.53,11.64-3.43,56.39-3.36,56.84l-1.72,.39c-3.16-9.95-12.93-35.96-20.06-36.77-1.35-.15-2.58,.72-3.74,2.68-9,15.19,17.62,42.63,17.89,42.9l-1.27,1.24Z"/></g><g><path class="cls-16" d="M903.89,1511.68s-24.23-24.7-15.89-38.77c8.34-14.07,22.4,30.22,22.4,30.22,0,0-7.29-52.37,7.82-53.28,15.11-.91,0,53.28,0,53.28,0,0,5.6-12.64,11.07-13.42,5.47-.78,3.91,10.71-5.86,21.96h-19.54Z"/><path class="cls-20" d="M905.62,1512.3c-.07-.07-7-7.17-12.67-16.15-7.74-12.25-9.58-21.97-5.48-28.9,1.53-2.58,3.37-3.78,5.47-3.54,7.1,.81,14.88,19.28,18.9,30.29-1.33-13.75-2.85-40.92,4.67-50.11,1.64-2,3.64-3.09,5.94-3.23,2.25-.14,4.09,.67,5.48,2.39,6.79,8.4,.65,38.08-2.72,51.96,2.51-4.07,6.08-8.61,9.72-9.13,1.72-.24,3.1,.4,3.87,1.81,2.2,4.04-.84,14.33-9.72,24.56l-1.34-1.16c8.74-10.06,11.13-19.56,9.5-22.55-.41-.76-1.07-1.05-2.06-.91-4.69,.67-10.16,10.84-11.87,14.7l-1.66-.6c.03-.12,3.34-12.06,5.57-25.12,2.91-17.09,2.68-28.31-.67-32.45-1.02-1.27-2.34-1.84-3.99-1.74-1.82,.11-3.34,.95-4.68,2.58-9.53,11.64-3.43,56.39-3.36,56.84l-1.72,.39c-3.16-9.95-12.93-35.96-20.06-36.77-1.37-.16-2.58,.72-3.74,2.68-9,15.19,17.63,42.62,17.9,42.9l-1.27,1.24Z"/></g></svg>